<svg xmlns="http://www.w3.org/2000/svg" version="1.1" xmlns:xlink="http://www.w3.org/1999/xlink" viewBox="0 0 700 700" style="overflow: hidden; display: block;" width="700" height="700"><defs><linearGradient id="two-11" x1="350" y1="-350" x2="350" y2="350" spreadMethod="pad" gradientUnits="userSpaceOnUse"><stop offset="0%" stop-color="hsl(37, 99%, 67%)" stop-opacity="1"></stop><stop offset="100%" stop-color="hsl(316, 73%, 52%)" stop-opacity="1"></stop></linearGradient></defs><g id="two-0" transform="matrix(1 0 0 1 0 0)" opacity="1"><path transform="matrix(1 0 0 1 350 350)" id="two-499" d="M 253.33736 60.042057 C 234.73293 76.416014 193.236008 69.723816 186.075166 93.45046 C 172.689162 137.803475 283.665657 177.674707 256.267744 215.034169 C 233.237688 246.437674 179.996568 188.797767 141.059386 189.475638 C 122.869586 189.792311 104.304408 195.87654 87.687147 203.281657 C 70.901416 210.761849 56.340694 223.532126 41.268683 234.046332 C 22.017691 247.475788 5.478149 285.398511 -16.082111 276.119171 C -63.937827 255.522505 14.425295 133.438621 -35.767872 119.473011 C -99.414071 101.764266 -95.904389 293.703705 -159.733759 276.666986 C -189.664278 268.678221 -161.72433 212.487169 -173.400142 183.793412 C -180.655269 165.963657 -203.997022 155.456648 -207.614655 136.550306 C -211.914281 114.079758 -179.126773 89.176491 -190.551418 69.355044 C -210.687442 34.419594 -297.437426 74.898626 -308.105188 36.012331 C -315.906661 7.574281 -264.158112 -5.123659 -246.612843 -28.824908 C -235.212535 -44.225158 -218.442922 -60.185295 -217.986557 -79.340619 C -217.141938 -114.792466 -288.150611 -147.199473 -266.454468 -175.249861 C -240.181041 -209.218104 -169.854058 -117.472864 -139.286716 -147.635293 C -104.657745 -181.805548 -200.809743 -255.603881 -168.646769 -292.104772 C -150.478318 -312.723656 -112.46755 -280.14835 -85.599429 -285.922002 C -61.060796 -291.195074 -43.524916 -318.102091 -18.767689 -322.228766 C 5.462856 -326.267651 30.27038 -312.987339 54.631727 -309.831922 C 79.620987 -306.595175 108.42658 -314.770053 130.678228 -302.946185 C 153.542687 -290.796687 162.514331 -260.990296 180.271917 -242.147209 C 196.160718 -225.287143 227.767085 -217.413618 231.94707 -194.626702 C 238.899948 -156.723537 194.072957 -125.952696 179.64376 -90.220488 C 172.9814 -73.721936 155.192356 -54.470915 163.546871 -38.761321 C 184.54411 0.721299 278.22303 -42.065866 293.396174 -0.000001 C 301.477993 22.405953 271.217589 44.305477 253.33736 60.042057 Z " fill="url(#two-11)" stroke="undefined" stroke-width="1" stroke-opacity="1" fill-opacity="1" visibility="visible" stroke-linecap="butt" stroke-linejoin="miter" stroke-miterlimit="4"></path></g></svg>